<svg width="110" height="110" viewBox="0 0 110 110" fill="none" xmlns="http://www.w3.org/2000/svg">
  <g filter="url(#filter0_d_69_2)">
    <path
      d="M24.4883 28.1445C23.6621 28.3379 24.1895 28.3027 23.5039 28.3906C20.5684 29.0234 22.748 29.5859 24.4883 28.1445ZM76.1152 29.3223C76.3262 29.1816 77.0645 28.4609 74.7617 27.7578C74.9023 28.4785 74.2871 28.4082 74.2871 28.8125C75.9922 30.3594 76.6953 33.0488 78.875 33.6113C79.2969 31.6777 76.9414 30.7285 76.1152 29.3223ZM22.9238 27.582C23.1875 29.1465 24.3652 25.9297 24.3828 24.7871C23.9258 25.0508 23.4688 25.3145 22.9941 25.5254C24.1016 26.0879 23.1348 26.6855 21.9395 27.582C19.5137 30.6055 24.207 25.2266 22.9238 27.582ZM53 8C28.1445 8 8 28.1445 8 53C8 77.8379 28.1445 98 53 98C77.8555 98 98 77.8379 98 53C98 28.1445 77.8555 8 53 8ZM54.1953 23.082L54.4062 23.1523C53.5625 24.2422 58.8008 27.4238 55.0391 27.6875C51.5234 28.6895 56.5156 26.7734 53.791 27.1074C55.2324 25.1035 52.6484 25.0684 54.1953 23.082ZM32.8555 25.9648C31.5898 24.9102 27.6172 27.4062 29.0059 26.8086C32.4512 25.4551 29.2344 26.9492 30.043 28.5664C29.3047 30.0957 29.7969 27.0547 27.9688 28.8652C26.6504 29.1641 23.416 32.1523 23.8203 31.2383C23.7148 32.6621 19.9707 34.3496 19.4609 36.7227C18.2305 40.0098 19.1621 36.5996 18.9336 35.3164C17.1758 33.084 13.9766 39.0957 14.9258 41.4688C16.5254 38.6562 16.4023 41.1699 15.2422 42.418C16.4199 44.5801 14.1699 47.3926 16.4023 48.9922C17.3867 49.2207 19.3555 45.6875 18.4941 49.3613C19.0918 46.1797 20.1465 50.1172 21.8516 49.2383C21.957 50.9082 22.9941 50.1348 23.2227 52.1562C26.0703 51.9453 28.6719 56.7617 25.2793 57.6758C25.7891 57.5352 26.791 58.4316 27.9512 57.7461C29.9199 59.3105 35.1055 59.5039 35.2461 63.3711C31.6777 65.0762 34.3672 69.7519 31.2734 71.4219C27.7227 70.8945 30.0605 75.7988 28.5664 75.2363C29.1641 78.7695 24.9805 74.7793 26.5977 76.7305C29.5684 78.5586 25.2969 78.1895 26.6328 79.5254C25.1387 79.209 27.5645 82.3027 27.9688 83.4453C30.1133 86.9258 26.123 82.6719 24.9453 81.5117C23.8203 79.2617 21.166 74.9551 20.4277 71.4219C20.0059 66.2891 16.0332 62.8438 15.1191 57.834C14.2051 55.0391 17.6328 50.5566 15.7871 48.9922C14.1875 47.7441 14.8379 43.4727 13.8887 41.2227C16.2617 30.9395 23.8027 22.2734 32.8555 17.1406C31.9238 17.8262 38.1816 15.3652 37.4609 15.9629C37.2676 16.4023 41.1172 14.293 43.4375 13.9766C43.1914 14.0117 37.4082 16.0859 39.0078 15.8047C36.5293 17.0176 38.7617 16.332 39.9922 15.7168C37.5312 17.5273 35.6328 17.0176 32.8379 18.6172C30.0254 19.3555 30.6055 22.2734 28.6016 23.7324C29.7793 23.9434 32.7324 20.6914 34.4551 19.5488C38.4102 17.6328 32.4512 23.0293 36.2129 20.709C34.9473 21.8867 35.2109 23.7676 34.4375 24.2949C34.0508 24.1895 35.9668 25.209 32.8555 25.9648ZM39.0078 17.8789C38.6035 18.4238 38.041 19.6016 37.707 18.8809C37.25 19.1094 37.0742 20.0938 36.2129 19.3027C36.7227 18.9336 37.25 18.0547 36.248 18.5996C36.7051 18.1074 40.7832 16.7188 40.5547 16.1914C41.2754 15.7344 41.2051 15.5059 40.3789 15.7871C39.957 15.6465 41.3809 14.4512 43.2793 14.293C43.543 14.293 43.6484 14.4688 43.1738 14.416C40.3086 15.2949 41.5391 15.0488 43.4727 14.416C42.7344 14.8379 42.2246 14.9609 42.1016 15.1543C44.0352 14.4512 41.9961 15.6641 42.4355 15.5762C41.8906 15.8574 42.5234 15.9453 41.4688 16.3496C41.6621 16.1914 39.7461 17.4922 40.8887 17.1055C39.7813 18.1602 39.2891 18.1777 39.0078 17.8789ZM40.6953 20.3926C40.7305 18.7051 43.1562 17.6328 42.8574 17.5449C45.8457 16.1387 41.8203 17.5977 44.1758 16.332C45.0547 16.2441 46.918 13.4316 49.502 13.2559C52.3496 12.3945 51.0312 13.3086 53.1406 12.5L52.7188 12.8516C52.3496 12.9043 52.8066 13.5547 51.4707 14.5391C51.3301 16.0684 48.9219 15.3652 50.1172 17C49.3438 15.8926 48.1836 16.9648 49.6426 17.0703C48.0781 18.2656 44.4395 18.4766 42.6992 20.4629C41.5742 22.0801 40.5371 21.5703 40.6953 20.3926ZM53.1934 26.0176C51.998 28.9004 50.8379 25.5957 52.9473 25.0684C53.4746 25.3496 53.6855 25.4375 53.1934 26.0176ZM48.6934 20.252C48.3418 18.9512 48.623 19.6367 50.7148 19.0215C52.1562 20.0586 49.4316 20.7441 48.6934 20.252ZM81.4238 71.8438C79.7715 68.9961 83.4277 66.3594 84.6582 63.9688C84.5 66.7637 84.1484 69.5234 81.4238 71.8438ZM87.6465 39.3066C85.8535 39.4473 84.2363 39.8691 82.6191 38.8496C78.8926 34.7715 83.3047 43.4551 84.5352 39.9043C88.9648 41.5918 84.4648 48.8691 81.6699 48.1133C80.1055 44.7383 78.1719 41.0293 74.7617 39.377C77.3809 42.2773 78.6816 45.8457 81.4941 48.4648C81.6875 52.1211 85.3965 47.1289 85.168 49.959C85.5195 54.8281 79.666 57.7461 80.6855 62.6328C82.8652 67.0801 76.4844 67.8887 77.2051 71.8789C74.6387 74.7441 71.8965 78.6113 67.291 77.9961C67.291 75.5703 66.0606 73.5137 65.7793 71.0176C63.2832 67.8535 68.416 64.4609 65.2344 61.1562C61.5605 60.3301 65.9902 55.2676 62.2109 55.7422C59.9434 53.4746 56.6211 55.6719 53.3691 55.6894C49.291 56.0762 45.0898 50.6797 46.9004 46.8652C45.459 42.8926 51.4707 41.7324 51.6289 38.2344C54.5117 35.8262 58.6074 36.125 62.5098 35.5625C62.2285 38.3574 65.1816 38.375 67.4141 39.3066C68.6621 36.2832 72.5469 39.7988 75.2012 37.8828C76.1152 33.418 72.6172 36.1074 70.6133 34.6836C68.1875 31.1328 75.7988 32.8555 75.0078 30.9922C72.0547 30.9746 73.7246 27.3535 71.6328 29.375C73.5137 29.709 71.2988 31.1855 71.3516 29.498C68.5039 28.6719 71.2461 32.7324 69.8047 33.1191C67.6074 32.2051 68.6445 34.1562 68.873 34.4551C67.9238 36.5117 66.7637 31.4316 64.0742 31.5723C61.4023 29.1289 63.0195 32.6797 65.3398 33.2598C64.8477 33.4004 65.6211 35.4219 65.0059 34.5605C63.0898 31.9238 59.4512 30.166 57.2891 33.4004C57.0605 36.4238 50.9082 37.2852 51.8926 33.752C50.4512 30.0957 56.3574 33.6465 55.8125 30.7285C52.0156 28.2148 56.8496 29.0234 58.1328 26.668C61.0508 26.7559 58.2559 24.2773 59.627 23.5566C59.4863 26.2461 61.8594 25.7363 63.7402 25.2266C63.2832 23.6797 64.8652 23.7324 63.8984 22.4492C68.2578 20.709 60.5762 23.2578 62.123 19.4434C60.2422 18.1426 61.332 22.3086 62.123 22.748C62.1758 24.0312 61.0859 25.6133 59.5918 22.9238C57.4121 24.3477 57.6406 21.4824 57.5 21.7812C57.2539 20.6738 59.1523 20.6211 59.1699 18.6875C59.0117 17.457 59.0469 16.8066 59.9258 16.7363C59.9961 16.9121 63.5293 16.9648 64.7773 18.4238C61.3672 17.7383 64.2676 18.9863 65.7969 19.6895C64.1621 18.4062 66.4473 19.6895 65.1113 18.2305C65.6387 18.3359 63.6523 16.2266 65.6914 18.0723C64.584 16.7539 67.8535 17.1406 65.9199 16.1562C68.75 16.9473 67.0801 16.2266 65.4102 15.5059C60.8047 12.7637 73.5488 19.2148 68.3457 16.3496C71.668 17.0703 61.2441 13.7832 65.9902 15.2246C64.1797 14.4336 65.9375 14.873 67.5723 15.3828C64.6367 14.4688 60.2422 12.7637 60.418 12.6934C61.4375 12.7637 62.4395 12.9922 63.4063 13.2734C66.4121 14.1699 62.5449 13.0625 63.3711 13.0801C73.707 15.7344 82.7598 22.6602 88.2617 31.7129C89.5449 33.0664 93.043 42.0137 91.2148 38.041C92.041 41.2051 92.1641 44.6152 92.6035 47.8496C91.6895 46.8301 90.6699 43.0684 89.791 40.9766C89.4219 41.7852 89 39.834 87.6465 39.3066Z"
      fill="#4D6AFF"/>
  </g>
  <defs>
    <filter id="filter0_d_69_2" x="0" y="0" width="110" height="110" filterUnits="userSpaceOnUse"
            color-interpolation-filters="sRGB">
      <feFlood flood-opacity="0" result="BackgroundImageFix"/>
      <feColorMatrix in="SourceAlpha" type="matrix" values="0 0 0 0 0 0 0 0 0 0 0 0 0 0 0 0 0 0 127 0"
                     result="hardAlpha"/>
      <feOffset dx="2" dy="2"/>
      <feGaussianBlur stdDeviation="5"/>
      <feComposite in2="hardAlpha" operator="out"/>
      <feColorMatrix type="matrix" values="0 0 0 0 0.541176 0 0 0 0 0.611765 0 0 0 0 1 0 0 0 0.1 0"/>
      <feBlend mode="normal" in2="BackgroundImageFix" result="effect1_dropShadow_69_2"/>
      <feBlend mode="normal" in="SourceGraphic" in2="effect1_dropShadow_69_2" result="shape"/>
    </filter>
  </defs>
</svg>
